<mxfile host="app.diagrams.net" agent="Mozilla/5.0 (Windows NT 10.0; Win64; x64) AppleWebKit/537.36 (KHTML, like Gecko) Chrome/129.0.0.0 Safari/537.36" version="24.7.17">
  <diagram id="iWt_vmumnxE_uqZ6LV3f" name="STATE">
    <mxGraphModel dx="1034" dy="454" grid="1" gridSize="10" guides="1" tooltips="1" connect="1" arrows="1" fold="1" page="1" pageScale="1" pageWidth="850" pageHeight="1100" math="0" shadow="0">
      <root>
        <mxCell id="0" />
        <mxCell id="1" parent="0" />
        <mxCell id="GVl1ISdTG7DD4gW1iH1I-1" value="" style="ellipse;fillColor=strokeColor;" parent="1" vertex="1">
          <mxGeometry x="441" y="20" width="14" height="14" as="geometry" />
        </mxCell>
        <mxCell id="GVl1ISdTG7DD4gW1iH1I-2" value="Idle" style="rounded=1;absoluteArcSize=1;arcSize=14;whiteSpace=wrap;strokeWidth=2;fillColor=#76608a;fontColor=#ffffff;strokeColor=#432D57;" parent="1" vertex="1">
          <mxGeometry x="428" y="84" width="42" height="34" as="geometry" />
        </mxCell>
        <mxCell id="GVl1ISdTG7DD4gW1iH1I-3" value="ReceivingData" style="rounded=1;absoluteArcSize=1;arcSize=14;whiteSpace=wrap;strokeWidth=2;fillColor=#76608a;fontColor=#ffffff;strokeColor=#432D57;" parent="1" vertex="1">
          <mxGeometry x="84" y="186" width="116" height="34" as="geometry" />
        </mxCell>
        <mxCell id="GVl1ISdTG7DD4gW1iH1I-4" value="ProcessingData" style="rounded=1;absoluteArcSize=1;arcSize=14;whiteSpace=wrap;strokeWidth=2;fillColor=#76608a;fontColor=#ffffff;strokeColor=#432D57;" parent="1" vertex="1">
          <mxGeometry x="80" y="289" width="122" height="34" as="geometry" />
        </mxCell>
        <mxCell id="GVl1ISdTG7DD4gW1iH1I-5" value="UpdatingStock" style="rounded=1;absoluteArcSize=1;arcSize=14;whiteSpace=wrap;strokeWidth=2;fillColor=#76608a;fontColor=#ffffff;strokeColor=#432D57;" parent="1" vertex="1">
          <mxGeometry x="82" y="391" width="119" height="34" as="geometry" />
        </mxCell>
        <mxCell id="GVl1ISdTG7DD4gW1iH1I-6" value="NotifyingAdmin" style="rounded=1;absoluteArcSize=1;arcSize=14;whiteSpace=wrap;strokeWidth=2;fillColor=#76608a;fontColor=#ffffff;strokeColor=#432D57;" parent="1" vertex="1">
          <mxGeometry x="158" y="493" width="125" height="34" as="geometry" />
        </mxCell>
        <mxCell id="GVl1ISdTG7DD4gW1iH1I-7" value="CheckingAvailability" style="rounded=1;absoluteArcSize=1;arcSize=14;whiteSpace=wrap;strokeWidth=2;fillColor=#76608a;fontColor=#ffffff;strokeColor=#432D57;" parent="1" vertex="1">
          <mxGeometry x="369" y="186" width="159" height="34" as="geometry" />
        </mxCell>
        <mxCell id="GVl1ISdTG7DD4gW1iH1I-8" value="Available" style="rounded=1;absoluteArcSize=1;arcSize=14;whiteSpace=wrap;strokeWidth=2;fillColor=#76608a;fontColor=#ffffff;strokeColor=#432D57;" parent="1" vertex="1">
          <mxGeometry x="684" y="289" width="81" height="34" as="geometry" />
        </mxCell>
        <mxCell id="GVl1ISdTG7DD4gW1iH1I-9" value="NotAvailable" style="rounded=1;absoluteArcSize=1;arcSize=14;whiteSpace=wrap;strokeWidth=2;fillColor=#76608a;fontColor=#ffffff;strokeColor=#432D57;" parent="1" vertex="1">
          <mxGeometry x="396" y="289" width="105" height="34" as="geometry" />
        </mxCell>
        <mxCell id="GVl1ISdTG7DD4gW1iH1I-10" value="ProcessingRequest" style="rounded=1;absoluteArcSize=1;arcSize=14;whiteSpace=wrap;strokeWidth=2;fillColor=#76608a;fontColor=#ffffff;strokeColor=#432D57;" parent="1" vertex="1">
          <mxGeometry x="651" y="391" width="146" height="34" as="geometry" />
        </mxCell>
        <mxCell id="GVl1ISdTG7DD4gW1iH1I-11" value="UpdatingStockAfterWithdrawal" style="rounded=1;absoluteArcSize=1;arcSize=14;whiteSpace=wrap;strokeWidth=2;fillColor=#76608a;fontColor=#ffffff;strokeColor=#432D57;" parent="1" vertex="1">
          <mxGeometry x="606" y="493" width="236" height="34" as="geometry" />
        </mxCell>
        <mxCell id="GVl1ISdTG7DD4gW1iH1I-12" value="NotifyingCustomer" style="rounded=1;absoluteArcSize=1;arcSize=14;whiteSpace=wrap;strokeWidth=2;fillColor=#76608a;fontColor=#ffffff;strokeColor=#432D57;" parent="1" vertex="1">
          <mxGeometry x="727" y="596" width="148" height="34" as="geometry" />
        </mxCell>
        <mxCell id="GVl1ISdTG7DD4gW1iH1I-13" value="NotifyCustomer" style="rounded=1;absoluteArcSize=1;arcSize=14;whiteSpace=wrap;strokeWidth=2;fillColor=#76608a;fontColor=#ffffff;strokeColor=#432D57;" parent="1" vertex="1">
          <mxGeometry x="448" y="391" width="127" height="34" as="geometry" />
        </mxCell>
        <mxCell id="GVl1ISdTG7DD4gW1iH1I-14" value="" style="curved=1;startArrow=none;;exitX=0.53;exitY=1;entryX=0.49;entryY=0;rounded=0;" parent="1" source="GVl1ISdTG7DD4gW1iH1I-1" target="GVl1ISdTG7DD4gW1iH1I-2" edge="1">
          <mxGeometry relative="1" as="geometry">
            <Array as="points" />
          </mxGeometry>
        </mxCell>
        <mxCell id="GVl1ISdTG7DD4gW1iH1I-15" value="Kirim Data Barang" style="curved=1;startArrow=none;;exitX=-0.01;exitY=0.6;entryX=0.49;entryY=0.01;rounded=0;" parent="1" source="GVl1ISdTG7DD4gW1iH1I-2" target="GVl1ISdTG7DD4gW1iH1I-3" edge="1">
          <mxGeometry relative="1" as="geometry">
            <Array as="points">
              <mxPoint x="141" y="152" />
            </Array>
          </mxGeometry>
        </mxCell>
        <mxCell id="GVl1ISdTG7DD4gW1iH1I-16" value="Data Diterima" style="curved=1;startArrow=none;;exitX=0.49;exitY=1;entryX=0.5;entryY=-0.01;rounded=0;" parent="1" source="GVl1ISdTG7DD4gW1iH1I-3" target="GVl1ISdTG7DD4gW1iH1I-4" edge="1">
          <mxGeometry relative="1" as="geometry">
            <Array as="points" />
          </mxGeometry>
        </mxCell>
        <mxCell id="GVl1ISdTG7DD4gW1iH1I-17" value="Data Diproses" style="curved=1;startArrow=none;;exitX=0.5;exitY=0.98;entryX=0.5;entryY=0;rounded=0;" parent="1" source="GVl1ISdTG7DD4gW1iH1I-4" target="GVl1ISdTG7DD4gW1iH1I-5" edge="1">
          <mxGeometry relative="1" as="geometry">
            <Array as="points" />
          </mxGeometry>
        </mxCell>
        <mxCell id="GVl1ISdTG7DD4gW1iH1I-18" value="Stok Diperbarui" style="curved=1;startArrow=none;;exitX=0.5;exitY=0.99;entryX=0.29;entryY=0.01;rounded=0;" parent="1" source="GVl1ISdTG7DD4gW1iH1I-5" target="GVl1ISdTG7DD4gW1iH1I-6" edge="1">
          <mxGeometry relative="1" as="geometry">
            <Array as="points">
              <mxPoint x="141" y="459" />
            </Array>
          </mxGeometry>
        </mxCell>
        <mxCell id="GVl1ISdTG7DD4gW1iH1I-19" value="Notifikasi Dikirim" style="curved=1;startArrow=none;;exitX=0.71;exitY=0.01;entryX=-0.01;entryY=0.71;rounded=0;" parent="1" source="GVl1ISdTG7DD4gW1iH1I-6" target="GVl1ISdTG7DD4gW1iH1I-2" edge="1">
          <mxGeometry relative="1" as="geometry">
            <Array as="points">
              <mxPoint x="299" y="459" />
              <mxPoint x="299" y="152" />
            </Array>
          </mxGeometry>
        </mxCell>
        <mxCell id="GVl1ISdTG7DD4gW1iH1I-20" value="Permintaan Barang Diterima" style="curved=1;startArrow=none;;exitX=0.49;exitY=0.99;entryX=0.5;entryY=0.01;rounded=0;" parent="1" source="GVl1ISdTG7DD4gW1iH1I-2" target="GVl1ISdTG7DD4gW1iH1I-7" edge="1">
          <mxGeometry relative="1" as="geometry">
            <Array as="points" />
          </mxGeometry>
        </mxCell>
        <mxCell id="GVl1ISdTG7DD4gW1iH1I-21" value="Stok Tersedia" style="curved=1;startArrow=none;;exitX=1;exitY=0.94;entryX=0.5;entryY=-0.01;rounded=0;" parent="1" source="GVl1ISdTG7DD4gW1iH1I-7" target="GVl1ISdTG7DD4gW1iH1I-8" edge="1">
          <mxGeometry relative="1" as="geometry">
            <Array as="points">
              <mxPoint x="724" y="254" />
            </Array>
          </mxGeometry>
        </mxCell>
        <mxCell id="GVl1ISdTG7DD4gW1iH1I-22" value="Stok Tidak Tersedia" style="curved=1;startArrow=none;;exitX=0.5;exitY=1;entryX=0.5;entryY=-0.01;rounded=0;" parent="1" source="GVl1ISdTG7DD4gW1iH1I-7" target="GVl1ISdTG7DD4gW1iH1I-9" edge="1">
          <mxGeometry relative="1" as="geometry">
            <Array as="points" />
          </mxGeometry>
        </mxCell>
        <mxCell id="GVl1ISdTG7DD4gW1iH1I-23" value="Proses Pengeluaran Barang" style="curved=1;startArrow=none;;exitX=0.5;exitY=0.98;entryX=0.5;entryY=0;rounded=0;" parent="1" source="GVl1ISdTG7DD4gW1iH1I-8" target="GVl1ISdTG7DD4gW1iH1I-10" edge="1">
          <mxGeometry relative="1" as="geometry">
            <Array as="points" />
          </mxGeometry>
        </mxCell>
        <mxCell id="GVl1ISdTG7DD4gW1iH1I-24" value="Update Stok Setelah Pengeluaran" style="curved=1;startArrow=none;;exitX=0.5;exitY=0.99;entryX=0.5;entryY=0.01;rounded=0;" parent="1" source="GVl1ISdTG7DD4gW1iH1I-10" target="GVl1ISdTG7DD4gW1iH1I-11" edge="1">
          <mxGeometry relative="1" as="geometry">
            <Array as="points" />
          </mxGeometry>
        </mxCell>
        <mxCell id="GVl1ISdTG7DD4gW1iH1I-25" value="Notifikasi Pengeluaran Sukses" style="curved=1;startArrow=none;;exitX=0.5;exitY=1;entryX=0.33;entryY=-0.01;rounded=0;" parent="1" source="GVl1ISdTG7DD4gW1iH1I-11" target="GVl1ISdTG7DD4gW1iH1I-12" edge="1">
          <mxGeometry relative="1" as="geometry">
            <Array as="points">
              <mxPoint x="724" y="561" />
            </Array>
          </mxGeometry>
        </mxCell>
        <mxCell id="GVl1ISdTG7DD4gW1iH1I-26" value="" style="curved=1;startArrow=none;;exitX=0.67;exitY=-0.01;entryX=0.98;entryY=0.57;rounded=0;" parent="1" source="GVl1ISdTG7DD4gW1iH1I-12" target="GVl1ISdTG7DD4gW1iH1I-2" edge="1">
          <mxGeometry relative="1" as="geometry">
            <Array as="points">
              <mxPoint x="878" y="561" />
              <mxPoint x="878" y="152" />
            </Array>
          </mxGeometry>
        </mxCell>
        <mxCell id="GVl1ISdTG7DD4gW1iH1I-27" value="Notifikasi Stok Tidak Tersedia" style="curved=1;startArrow=none;;exitX=0.5;exitY=0.98;entryX=0.33;entryY=0;rounded=0;" parent="1" source="GVl1ISdTG7DD4gW1iH1I-9" target="GVl1ISdTG7DD4gW1iH1I-13" edge="1">
          <mxGeometry relative="1" as="geometry">
            <Array as="points">
              <mxPoint x="448" y="357" />
            </Array>
          </mxGeometry>
        </mxCell>
        <mxCell id="GVl1ISdTG7DD4gW1iH1I-28" value="" style="curved=1;startArrow=none;;exitX=0.66;exitY=0;entryX=0.98;entryY=0.75;rounded=0;" parent="1" source="GVl1ISdTG7DD4gW1iH1I-13" target="GVl1ISdTG7DD4gW1iH1I-2" edge="1">
          <mxGeometry relative="1" as="geometry">
            <Array as="points">
              <mxPoint x="574" y="357" />
              <mxPoint x="574" y="152" />
            </Array>
          </mxGeometry>
        </mxCell>
      </root>
    </mxGraphModel>
  </diagram>
</mxfile>
